# xmcd
#
# Track frame offsets:
# 150
# 26108
# 48165
# 69633
# 91657
# 119342
# 138767
# 142656
# 160261
# 189952
# 210426
# 231822
# 252755
# 278174
#
# Disc length: 4020 seconds
#
# Revision: 0
# Processed by: cddbd v1.5.2PL0 Copyright (c) Steve Scherf et al.
# Submitted via: Audion 3.0.2 (http://www.panic.com/audion/)
#
DISCID=b30fb20e
DTITLE=nobody beats the drum - Beats work
DYEAR=1900
DGENRE=
TTITLE0=Beats work
TTITLE1=When i get low
TTITLE2=Quit your job
TTITLE3=Purple cactus
TTITLE4=Planet comotax
TTITLE5=Kwikkestylers
TTITLE6=Radio shack 84
TTITLE7=Oh la la
TTITLE8=No ID
TTITLE9=Damage
TTITLE10=Damage done
TTITLE11=The drum
TTITLE12=Quit your job live
TTITLE13=The drum live
EXTD=
EXTT0=
EXTT1=
EXTT2=
EXTT3=
EXTT4=
EXTT5=
EXTT6=
EXTT7=
EXTT8=
EXTT9=
EXTT10=
EXTT11=
EXTT12=
EXTT13=
PLAYORDER=
